<?xml version="1.0" encoding="UTF-8" standalone="no"?>
<!-- Created with Inkscape (http://www.inkscape.org/) -->

<svg
   width="150"
   height="100"
   viewBox="0 0 39.687498 26.458334"
   version="1.1"
   id="svg9475"
   inkscape:version="1.1 (c68e22c387, 2021-05-23)"
   sodipodi:docname="logo_white.svg"
   xmlns:inkscape="http://www.inkscape.org/namespaces/inkscape"
   xmlns:sodipodi="http://sodipodi.sourceforge.net/DTD/sodipodi-0.dtd"
   xmlns="http://www.w3.org/2000/svg"
   xmlns:svg="http://www.w3.org/2000/svg">
  <sodipodi:namedview
     id="namedview9477"
     pagecolor="#000000"
     bordercolor="#eeeeee"
     borderopacity="1"
     inkscape:pageshadow="0"
     inkscape:pageopacity="0"
     inkscape:pagecheckerboard="0"
     inkscape:document-units="px"
     showgrid="false"
     units="px"
     inkscape:zoom="1.0721732"
     inkscape:cx="76.013841"
     inkscape:cy="155.29208"
     inkscape:window-width="1280"
     inkscape:window-height="737"
     inkscape:window-x="-8"
     inkscape:window-y="-8"
     inkscape:window-maximized="1"
     inkscape:current-layer="layer1-7"
     showborder="true"
     width="100px" />
  <defs
     id="defs9472" />
  <g
     inkscape:label="Layer 1"
     inkscape:groupmode="layer"
     id="layer1">
    <g
       inkscape:label="Layer 1"
       id="layer1-7"
       transform="translate(-41.162804,6.6540796)">
      <g
         id="g8965"
         transform="matrix(0.25293089,0,0,0.25293089,45.804555,-9.8806824)"
         style="fill:#ffffff;stroke-width:3.95365">
        <rect
           style="fill:#ffffff;fill-rule:evenodd;stroke:none;stroke-width:0;stroke-miterlimit:4;stroke-dasharray:none;stroke-opacity:1"
           id="rect867"
           width="22.00676"
           height="22.00676"
           x="27.205181"
           y="55.812469" />
        <path
           id="rect949"
           style="fill:#ffffff;fill-rule:evenodd;stroke:none;stroke-width:0;stroke-miterlimit:4;stroke-dasharray:none;stroke-opacity:1"
           d="M 27.204927,33.805354 V 55.812698 L 49.212271,33.805354 Z" />
        <rect
           style="fill:#ffffff;fill-rule:evenodd;stroke:none;stroke-width:0;stroke-miterlimit:4;stroke-dasharray:none;stroke-opacity:1"
           id="rect951"
           width="22.00676"
           height="22.00676"
           x="5.1981688"
           y="33.805359" />
        <path
           id="rect1028"
           style="fill:#ffffff;fill-rule:evenodd;stroke:none;stroke-width:0;stroke-miterlimit:4;stroke-dasharray:none;stroke-opacity:1"
           d="M 27.204889,77.819229 V 99.825856 L 49.212233,77.819229 Z" />
        <path
           id="rect1030"
           style="fill:#ffffff;fill-rule:evenodd;stroke:none;stroke-width:0;stroke-miterlimit:4;stroke-dasharray:none;stroke-opacity:1"
           d="M 49.212271,33.805354 V 55.812698 H 71.218897 Z" />
        <path
           id="path1818"
           style="fill:#ffffff;fill-rule:evenodd;stroke:none;stroke-width:0;stroke-miterlimit:4;stroke-dasharray:none;stroke-opacity:1"
           d="M 49.212271,33.805354 V 55.812698 H 71.218897 Z" />
        <g
           id="g7297"
           transform="matrix(0.88822551,0,0,0.88822551,-51.133961,11.56345)"
           style="fill:#ffffff;stroke:none;stroke-width:0;stroke-miterlimit:4;stroke-dasharray:none;stroke-opacity:1">
          <path
             id="rect843"
             style="color:#000000;fill:#ffffff;fill-opacity:1;fill-rule:evenodd;stroke:none;stroke-width:0;stroke-miterlimit:4;stroke-dasharray:none;stroke-opacity:1"
             d="m 191.72462,86.2962 c -0.92447,0.13 -1.88286,0.20295 -2.87004,0.20295 h -35.05504 c -4.37981,0 -8.22825,-1.37164 -10.77338,-3.29748 -0.65846,-0.49825 -1.22123,-1.01704 -1.69984,-1.55171 -1.37298,1.53276 -2.02219,3.20076 -2.02219,4.92404 0,2.32337 1.17691,4.54724 3.72203,6.47307 0.29204,0.22099 0.60124,0.43467 0.92643,0.63982 2.50887,1.58275 5.9697,2.65767 9.84695,2.65767 h 35.05504 z m -2.87004,10.04836 c 0.11391,0 0.22606,-0.004 0.3392,-0.006 l -0.0172,-0.005 z m 0,-48.662868 c 0,-5.816452 -3.15313,-10.939186 -7.62743,-14.324794 -4.47429,-3.385607 -10.33324,-5.291179 -16.71071,-5.291179 H 129.4614 c -0.96977,0 -1.92728,0.04502 -2.87003,0.131651 l 2.54798,9.725297 c 0.10828,-0.0018 0.21307,-0.01154 0.32205,-0.01154 h 35.05504 c 4.37982,0 8.22825,1.371641 10.77338,3.297484 2.54512,1.925842 3.72204,4.149707 3.72204,6.473077 0,2.32337 -1.17692,4.546936 -3.72204,6.472785 -2.54513,1.925836 -6.55349,3.339333 -10.77338,3.297482 h -4.66186 c -0.16071,-0.0036 -0.32207,-0.0083 -0.48529,-0.01772 l -5.68258,-0.02251 c -6.36689,-0.367313 -12.12358,1.606781 -16.59788,4.992395 -4.47429,3.385607 -7.62743,8.508341 -7.62743,14.324788 V 86.574 c 0,-5.81646 3.15314,-10.938892 7.62743,-14.324501 4.4743,-3.385607 10.33324,-5.291172 16.71071,-5.291172 l 2.31733,0.207677 v 0 c 0.94276,0.08663 1.90027,0.131356 2.87004,0.131356 h 5.52953 c 6.37747,0 12.23642,-1.905568 16.71071,-5.291175 4.4743,-3.385607 7.62743,-8.508045 7.62743,-14.324497 z"
             sodipodi:nodetypes="cssscssssccccccssssccsssscccccsscssccssscs" />
        </g>
      </g>
    </g>
  </g>
</svg>
