<?xml version="1.0" encoding="UTF-8"?>
<!-- Created with Inkscape (http://www.inkscape.org/) -->
<svg width="900" height="450" version="1.1" viewBox="0 0 238.12 119.06" xmlns="http://www.w3.org/2000/svg" xmlns:xlink="http://www.w3.org/1999/xlink">
 <defs>
  <pattern id="pattern938" patternTransform="matrix(8.8531 0 0 8.8531 133.95 -136.72)" xlink:href="#pattern17183"/>
  <pattern id="pattern17509" patternTransform="matrix(8.8531 0 0 8.8531 106.49 -32.727)" xlink:href="#pattern17183"/>
  <pattern id="pattern17183" patternTransform="matrix(7.3585 0 0 7.3585 120.09 -128.09)" xlink:href="#Strips1_1white"/>
  <pattern id="Strips1_1white" width="2" height="1" patternTransform="translate(0) scale(10)" patternUnits="userSpaceOnUse">
   <rect y="-.5" width="1" height="2" fill="#fff"/>
  </pattern>
  <linearGradient id="linearGradient6853">
   <stop stop-color="#80ffe6" offset="0"/>
   <stop stop-color="#80ffe6" stop-opacity="0" offset="1"/>
  </linearGradient>
  <linearGradient id="linearGradient3538" x1="144.29" x2="170.39" y1="127.17" y2="185.15" gradientTransform="matrix(1.2031 0 0 1.2031 -19.743 4.8551)" gradientUnits="userSpaceOnUse">
   <stop stop-color="#504" offset="0"/>
   <stop stop-color="#000080" stop-opacity="0" offset="1"/>
  </linearGradient>
  <linearGradient id="linearGradient4710" x1="76.2" x2="-.11632" y1="122.77" y2="129.12" gradientTransform="matrix(1.2031 0 0 1.2031 -19.743 4.8551)" gradientUnits="userSpaceOnUse">
   <stop stop-color="#0000d4" offset="0"/>
   <stop stop-color="#0000d4" stop-opacity="0" offset="1"/>
  </linearGradient>
  <linearGradient id="linearGradient5440" x1="125.12" x2="136.97" y1="79.375" y2="-.054675" gradientTransform="matrix(1.2031 0 0 1.2031 -19.743 4.8551)" gradientUnits="userSpaceOnUse">
   <stop stop-color="#08a" offset="0"/>
   <stop stop-color="#08a" stop-opacity="0" offset="1"/>
  </linearGradient>
  <linearGradient id="linearGradient6305" x1="127.94" x2="306.27" y1="94.192" y2="94.721" gradientTransform="matrix(1.2031 0 0 1.2031 -19.743 4.8551)" gradientUnits="userSpaceOnUse">
   <stop stop-color="#5f9" offset="0"/>
   <stop stop-color="#5f9" stop-opacity="0" offset="1"/>
  </linearGradient>
  <linearGradient id="linearGradient6855" x1="213.04" x2="238.01" y1="135.52" y2="185.15" gradientTransform="matrix(1.2031 0 0 1.2031 -19.743 4.8551)" gradientUnits="userSpaceOnUse" xlink:href="#linearGradient6853"/>
  <filter id="filter8483" x="-3.3013e-6" y="-5.0014e-6" width="1" height="1" color-interpolation-filters="sRGB">
   <feGaussianBlur stdDeviation="0.00031446667"/>
  </filter>
  <linearGradient id="linearGradient9200" x1="10.731" x2="40.598" y1="44.45" y2="61.912" gradientUnits="userSpaceOnUse" xlink:href="#linearGradient6853"/>
  <linearGradient id="linearGradient9506" x1="10.731" x2="40.598" y1="44.45" y2="61.912" gradientTransform="translate(130.2 53.421)" gradientUnits="userSpaceOnUse" xlink:href="#linearGradient6853"/>
  <linearGradient id="linearGradient9510" x1="10.731" x2="40.598" y1="44.45" y2="61.912" gradientTransform="translate(130.2 53.421)" gradientUnits="userSpaceOnUse">
   <stop stop-color="#0cf" offset="0"/>
   <stop stop-color="#80ffe6" stop-opacity="0" offset="1"/>
  </linearGradient>
  <linearGradient id="linearGradient9663" x1="10.731" x2="40.598" y1="44.45" y2="61.912" gradientTransform="matrix(0 4.4113 -4.4113 0 273.35 499.04)" gradientUnits="userSpaceOnUse">
   <stop stop-color="#330080" offset="0"/>
   <stop stop-color="#80ffe6" stop-opacity="0" offset="1"/>
  </linearGradient>
  <linearGradient id="linearGradient10343" x1="65.271" x2="100.48" y1="-47.574" y2="-53.737" gradientTransform="matrix(1.2031 0 0 1.2031 -.42009 20.326)" gradientUnits="userSpaceOnUse">
   <stop stop-color="#7137c8" offset="0"/>
   <stop stop-color="#7137c8" stop-opacity="0" offset="1"/>
  </linearGradient>
  <linearGradient id="linearGradient10737" x1="124.53" x2="162.53" y1="100.62" y2="-.22679" gradientTransform="matrix(.87122 0 0 .87122 54.482 26.699)" gradientUnits="userSpaceOnUse">
   <stop stop-color="#08a" offset="0"/>
   <stop stop-color="#5f9" stop-opacity="0" offset="1"/>
  </linearGradient>
  <linearGradient id="linearGradient11069" x1="76.2" x2="-.11632" y1="122.77" y2="129.12" gradientTransform="matrix(-1.2031 0 0 1.2031 301.63 -100.83)" gradientUnits="userSpaceOnUse">
   <stop stop-color="#5a2ca0" offset="0"/>
   <stop stop-color="#0000d4" stop-opacity="0" offset="1"/>
  </linearGradient>
  <linearGradient id="linearGradient11761" x1="51.065" x2="151.08" y1="150.81" y2="150.81" gradientTransform="matrix(.26128 .97511 -.97511 .26128 225.06 55.98)" gradientUnits="userSpaceOnUse">
   <stop stop-color="#a05a2c" offset="0"/>
   <stop stop-color="#08a" stop-opacity="0" offset="1"/>
  </linearGradient>
  <linearGradient id="linearGradient12690" x1="25.4" x2="87.842" y1="128.59" y2="47.625" gradientTransform="matrix(.73739 0 0 .73739 56.82 91.973)" gradientUnits="userSpaceOnUse">
   <stop stop-color="#f60" offset="0"/>
   <stop stop-color="#f60" stop-opacity="0" offset="1"/>
  </linearGradient>
  <linearGradient id="linearGradient13111" x1="-20.638" x2="111.12" y1="28.046" y2="29.104" gradientTransform="matrix(1.2031 0 0 .9274 -19.743 9.378)" gradientUnits="userSpaceOnUse">
   <stop stop-color="#f60" stop-opacity="0" offset="0"/>
   <stop stop-color="#5500d4" offset="1"/>
  </linearGradient>
  <linearGradient id="linearGradient13555" x1="-4.7625" x2="111.12" y1="30.792" y2="29.104" gradientTransform="matrix(0 1.2031 -.9274 0 216.71 -32.389)" gradientUnits="userSpaceOnUse">
   <stop stop-color="#fff" stop-opacity="0" offset="0"/>
   <stop stop-color="#87decd" offset="1"/>
  </linearGradient>
  <linearGradient id="linearGradient13980" x1="63.5" x2="164.57" y1="159.28" y2="88.371" gradientTransform="matrix(1.0397 0 0 1.0397 -15.137 63.222)" gradientUnits="userSpaceOnUse">
   <stop stop-color="#0cf" offset="0"/>
   <stop stop-color="#0cf" stop-opacity="0" offset="1"/>
  </linearGradient>
  <clipPath id="clipPath1053">
   <text x="3.5569141" y="118.77715" fill="#ffffff" font-family="Poppins" font-size="115.56px" font-weight="bold" stroke-width=".26458" style="line-height:1.25" xml:space="preserve"><tspan x="3.5569141" y="118.77715" fill="#ffffff" font-size="115.56px" stroke-width=".26458">404</tspan></text>
  </clipPath>
 </defs>
 <g transform="translate(-1.4967 -17.212)" clip-path="url(#clipPath1053)">
  <rect x="-19.883" y="4.7893" width="286.49" height="222.83" ry="0" fill="#00aad4" stroke-width="1.4741"/>
  <path d="m171.89 150.65c-14.461 0-26.103 11.642-26.103 26.103v50.866h52.205v-50.866c0-14.461-11.642-26.103-26.103-26.103z" fill="url(#linearGradient3538)" stroke-width="1.2858"/>
  <g>
   <circle cx="97.401" cy="127.09" r="24.193" fill="url(#linearGradient12690)"/>
   <path d="m-19.882 124.55v54.752h87.361c14.461 0 26.103-11.642 26.103-26.103v-2.5466c0-14.461-11.642-26.103-26.103-26.103z" fill="url(#linearGradient4710)" stroke-width="1.0583"/>
   <path d="m101.89 4.7892v66.665c0 16.01 12.888 28.898 28.898 28.898s28.898-12.888 28.898-28.898v-66.665z" fill="url(#linearGradient5440)" stroke-width="1.3415"/>
   <path d="m211.86 91.439c-15.166 0-27.376 12.21-27.376 27.376 0 15.166 12.21 27.376 27.376 27.376h54.752v-54.752z" fill="url(#linearGradient6305)" stroke-width="1.0583"/>
   <path d="m266.61 167.9c-16.644 0-30.043 13.399-30.043 30.043v29.67h30.043z" fill="url(#linearGradient6855)" stroke-width=".70123"/>
  </g>
  <g fill="none">
   <circle transform="matrix(1.2031 0 0 1.2031 -19.743 4.8551)" cx="45.508" cy="44.45" r="30.808" filter="url(#filter8483)" stroke="url(#linearGradient9200)" stroke-width="6.5974"/>
   <circle transform="matrix(-1.2031 0 0 -1.2031 409.39 257.44)" cx="175.71" cy="97.871" r="30.808" filter="url(#filter8483)" stroke="url(#linearGradient9506)" stroke-width="6.5974"/>
   <circle transform="matrix(.61024 .35232 -.35232 .61024 79.175 -17.904)" cx="175.71" cy="97.871" r="30.808" filter="url(#filter8483)" stroke="url(#linearGradient9510)" stroke-width="11.264"/>
  </g>
  <path transform="matrix(.31832 0 0 .31832 -19.743 4.8551)" d="m77.266 548.89c-28.395 0-54.988 7.9015-77.705 21.613v36.553c20.99-17.59 48.071-28.166 77.705-28.166 66.949 0 120.9 53.952 120.91 120.9h30c-0.00213-83.162-67.744-150.9-150.91-150.9z" color="#000000" fill="url(#linearGradient9663)" filter="url(#filter8483)" stroke-width="3.6665" style="-inkscape-stroke:none"/>
  <g>
   <circle transform="rotate(75)" cx="113.12" cy="-36.911" r="35.016" fill="url(#linearGradient10343)"/>
   <circle cx="194.17" cy="58.97" r="26.739" fill="url(#linearGradient10737)"/>
   <path d="m214.4 18.861c-14.461 0-26.103 11.642-26.103 26.103v2.5466c0 14.461 11.642 26.103 26.103 26.103h52.205v-54.752z" fill="url(#linearGradient11069)" stroke-width="1.0583"/>
  </g>
  <path d="m103.91 142.69c-4.2237 0.0391-8.5082 0.60593-12.772 1.7483-27.286 7.3112-43.55 35.482-36.239 62.768 2.0912 7.8044 5.891 14.705 10.886 20.413h13.979c-7.4018-5.4142-13.075-13.305-15.641-22.884-5.9754-22.3 7.1863-45.097 29.487-51.072 22.3-5.9754 45.097 7.1863 51.072 29.487 4.5981 17.16-2.1374 34.613-15.647 44.47h13.97c10.817-12.44 15.477-29.863 10.901-46.941-6.1688-23.022-27.188-38.199-49.996-37.988z" color="#000000" fill="url(#linearGradient11761)" stroke-linecap="round" stroke-linejoin="round" style="-inkscape-stroke:none"/>
  <g>
   <path d="m-19.882 24.591v23.556h133.84v-23.556z" fill="url(#linearGradient13111)"/>
   <path d="m177.94 4.7892v96.518h23.556v-96.518z" fill="url(#linearGradient13555)"/>
   <circle cx="111.41" cy="155.1" r="44.565" fill="url(#linearGradient13980)"/>
   <circle transform="rotate(45)" cx="238.42" cy="-40.68" r="24.829" fill="url(#pattern938)" opacity=".58147" style="mix-blend-mode:normal"/>
   <circle transform="rotate(45)" cx="210.96" cy="63.311" r="24.829" fill="url(#pattern17509)" opacity=".58147" style="mix-blend-mode:normal"/>
  </g>
 </g>
</svg>
